<svg width="24" height="24" viewBox="0 0 24 24" fill="none" xmlns="http://www.w3.org/2000/svg">
<path d="M14.625 15V20.518C14.625 20.8769 14.5543 21.2322 14.4169 21.5637C14.2796 21.8952 14.0783 22.1965 13.8245 22.4502C13.5707 22.7039 13.2694 22.9051 12.9378 23.0423C12.6062 23.1796 12.2509 23.2501 11.892 23.25H5.358C4.99914 23.2501 4.64378 23.1796 4.3122 23.0423C3.98063 22.9051 3.67933 22.7039 3.42554 22.4502C3.17174 22.1965 2.97042 21.8952 2.83306 21.5637C2.6957 21.2322 2.625 20.8769 2.625 20.518V4.983C2.625 4.25816 2.91294 3.56301 3.42548 3.05048C3.93801 2.53794 4.63316 2.25 5.358 2.25H9.375" stroke="white" stroke-width="1.5" stroke-linecap="round" stroke-linejoin="round"/>
<path d="M2.625 18.75H14.625" stroke="white" stroke-width="1.5" stroke-linecap="round" stroke-linejoin="round"/>
<path d="M20.042 0.829998L9.95399 5.154C9.78638 5.22524 9.64266 5.34297 9.53982 5.49328C9.43698 5.64359 9.37931 5.8202 9.37363 6.00223C9.36795 6.18427 9.4145 6.36413 9.50777 6.52056C9.60105 6.67699 9.73715 6.80345 9.89999 6.885L13.458 8.664L15.237 12.223C15.3186 12.3856 15.4449 12.5216 15.6011 12.6148C15.7573 12.7081 15.9369 12.7548 16.1188 12.7494C16.3006 12.7441 16.4771 12.6869 16.6276 12.5846C16.778 12.4823 16.8961 12.3391 16.968 12.172L21.3 2.084C21.3759 1.90814 21.3971 1.71354 21.361 1.52545C21.3249 1.33737 21.233 1.16449 21.0974 1.02928C20.9617 0.894067 20.7885 0.802763 20.6003 0.767225C20.4121 0.731688 20.2176 0.753558 20.042 0.829998V0.829998Z" stroke="white" stroke-width="1.5" stroke-linecap="round" stroke-linejoin="round"/>
</svg>
