<svg width="23" height="24" viewBox="0 0 23 24" fill="none" xmlns="http://www.w3.org/2000/svg">
<path d="M21.799 7.674L20.326 5.074C20.2314 4.90429 20.104 4.75517 19.951 4.63538C19.7981 4.51559 19.6228 4.42754 19.4354 4.37641C19.248 4.32527 19.0523 4.31207 18.8597 4.33759C18.6671 4.36311 18.4816 4.42682 18.314 4.525L14.499 6.8V2.25C14.5024 1.85579 14.3492 1.47634 14.073 1.19506C13.7968 0.91378 13.4202 0.753696 13.026 0.75H9.97195C9.57774 0.753696 9.20114 0.91378 8.92492 1.19506C8.6487 1.47634 8.49549 1.85579 8.49895 2.25V6.8L4.68095 4.527C4.51333 4.42882 4.32779 4.36511 4.13521 4.33959C3.94264 4.31407 3.74691 4.32727 3.5595 4.37841C3.3721 4.42954 3.19679 4.51759 3.04386 4.63738C2.89094 4.75717 2.76348 4.90629 2.66895 5.076L1.19895 7.674C1.00292 8.01816 0.949562 8.42544 1.05032 8.80849C1.15109 9.19154 1.39794 9.51984 1.73795 9.723L5.60795 12L1.73595 14.277C1.39628 14.4805 1.14985 14.8089 1.04946 15.192C0.949083 15.575 1.00275 15.9821 1.19895 16.326L2.67095 18.926C2.76548 19.0957 2.89294 19.2448 3.04587 19.3646C3.19879 19.4844 3.3741 19.5725 3.5615 19.6236C3.74891 19.6747 3.94464 19.6879 4.13721 19.6624C4.32979 19.6369 4.51533 19.5732 4.68295 19.475L8.49895 17.2V21.75C8.50157 22.147 8.66045 22.527 8.94119 22.8078C9.22192 23.0885 9.60193 23.2474 9.99895 23.25H12.999C13.396 23.2474 13.776 23.0885 14.0567 22.8078C14.3375 22.527 14.4963 22.147 14.499 21.75V17.2L18.317 19.477C18.4846 19.5752 18.6701 19.6389 18.8627 19.6644C19.0553 19.6899 19.251 19.6767 19.4384 19.6256C19.6258 19.5745 19.8011 19.4864 19.954 19.3666C20.107 19.2468 20.2344 19.0977 20.329 18.928L21.802 16.328C21.998 15.9838 22.0513 15.5766 21.9506 15.1935C21.8498 14.8105 21.603 14.4822 21.263 14.279L17.391 12L21.263 9.723C21.6024 9.51935 21.8487 9.19083 21.9489 8.80782C22.0491 8.42482 21.9952 8.0178 21.799 7.674V7.674Z" stroke="white" stroke-width="1.5" stroke-linecap="round" stroke-linejoin="round"/>
</svg>
