<svg width="146" height="66" viewBox="0 0 146 66" fill="none" xmlns="http://www.w3.org/2000/svg">
<path opacity="0.08" d="M0 28.892C0 57.647 30.08 66 48.106 66C66.323 59.304 46.533 47.044 46.533 31.087C46.533 15.13 68.997 3.827 48.106 0C30.08 0 0 6.573 0 28.892Z" fill="#4C45F3"/>
<path d="M51.023 44.448C57.455 44.448 62.671 39.392 62.671 32.8C62.671 26.208 57.455 21.152 51.023 21.152C44.591 21.152 39.375 26.208 39.375 32.8C39.375 39.392 44.591 44.448 51.023 44.448V44.448ZM51.023 39.456C47.375 39.456 44.495 36.8 44.495 32.8C44.495 28.8 47.375 26.144 51.023 26.144C54.671 26.144 57.551 28.8 57.551 32.8C57.551 36.8 54.671 39.456 51.023 39.456ZM69.961 44H76.489L83.785 21.6H78.185L73.225 38.08L68.265 21.6H62.665L69.961 44ZM85.71 21.6V44H90.83V21.6H85.71ZM103.639 21.6H94.679V44H103.639C109.815 44 114.519 39.136 114.519 32.8C114.519 26.464 109.815 21.6 103.639 21.6V21.6ZM103.639 39.072H99.799V26.528H103.639C107.159 26.528 109.591 28.96 109.591 32.8C109.591 36.64 107.159 39.072 103.639 39.072V39.072Z" fill="#271335"/>
<path d="M28.648 44.448C32.744 44.448 36.328 42.432 38.248 39.264L33.832 36.704C32.872 38.432 30.92 39.456 28.648 39.456C24.68 39.456 22.12 36.8 22.12 32.8C22.12 28.8 24.68 26.144 28.648 26.144C30.92 26.144 32.84 27.168 33.832 28.896L38.248 26.336C36.296 23.168 32.712 21.152 28.648 21.152C21.896 21.152 17 26.208 17 32.8C17 39.392 21.896 44.448 28.648 44.448V44.448Z" fill="#06C0B9"/>
<path d="M121.896 21.448L116.04 23.56L117.288 27.944L121.256 26.856V43.848H126.376V21.448H121.896V21.448ZM145.906 28.904C145.906 24.264 142.546 21 137.586 21C132.658 21 129.266 24.264 129.266 28.904C129.266 33.256 132.274 36.424 136.722 36.776L131.858 43.848H137.746L144.594 33.448C145.426 32.2 145.906 30.632 145.906 28.904V28.904ZM134.386 28.904C134.386 26.952 135.89 25.8 137.586 25.8C139.314 25.8 140.786 26.92 140.786 28.904C140.786 30.888 139.314 32.008 137.586 32.008C135.89 32.008 134.386 30.856 134.386 28.904V28.904Z" fill="#271335"/>
<path d="M98.055 58H100.5L97.175 49H94.325L91 58H93.445L93.934 56.586H97.566L98.055 58ZM94.604 54.657L95.75 51.353L96.896 54.657H94.604ZM104.966 56.02V49H102.731V58H108.459V56.02H104.966ZM113.076 56.02V54.426H116.569V52.47H113.076V50.98H116.918V49H110.841V58H116.988V56.02H113.076ZM124.787 58H127.19L125.109 54.696C126.184 54.194 126.911 53.191 126.911 52.086C126.911 50.376 125.416 49 123.558 49H119.646V58H121.881V55.043H122.943L124.787 58ZM121.881 50.929H123.558C124.173 50.929 124.676 51.43 124.676 52.086C124.676 52.741 124.173 53.243 123.558 53.243H121.881V50.929ZM136 49H128.735V50.98H131.25V58H133.485V50.98H136V49Z" fill="#4C45F3"/>
<path fill-rule="evenodd" clip-rule="evenodd" d="M143.055 58H145.5L142.175 49H139.325L136 58H138.445L138.934 56.586H142.566L143.055 58ZM139.604 54.657L140.75 51.353L141.896 54.657H139.604Z" fill="#4C45F3"/>
</svg>
