<svg width="146" height="66" viewBox="0 0 146 66" fill="none" xmlns="http://www.w3.org/2000/svg">
<path opacity="0.08" d="M-3.8147e-06 28.8921C-3.8147e-06 57.6473 30.0806 66 48.1059 66C66.323 59.3043 46.533 47.0436 46.533 31.087C46.533 15.1303 68.9973 3.82609 48.1059 0C30.0806 0 -3.8147e-06 6.57261 -3.8147e-06 28.8921Z" fill="#4C45F3"/>
<path d="M51.023 44.448C57.455 44.448 62.671 39.392 62.671 32.8C62.671 26.208 57.455 21.152 51.023 21.152C44.591 21.152 39.375 26.208 39.375 32.8C39.375 39.392 44.591 44.448 51.023 44.448ZM51.023 39.456C47.375 39.456 44.495 36.8 44.495 32.8C44.495 28.8 47.375 26.144 51.023 26.144C54.671 26.144 57.551 28.8 57.551 32.8C57.551 36.8 54.671 39.456 51.023 39.456Z" fill="#271335"/>
<path d="M69.961 44H76.489L83.785 21.6H78.185L73.225 38.08L68.265 21.6H62.665L69.961 44Z" fill="#271335"/>
<path d="M85.71 21.6V44H90.83V21.6H85.71Z" fill="#271335"/>
<path d="M103.639 21.6H94.6787V44H103.639C109.815 44 114.519 39.136 114.519 32.8C114.519 26.464 109.815 21.6 103.639 21.6ZM103.639 39.072H99.7988V26.528H103.639C107.159 26.528 109.591 28.96 109.591 32.8C109.591 36.64 107.159 39.072 103.639 39.072Z" fill="#271335"/>
<path d="M28.648 44.448C32.744 44.448 36.328 42.432 38.248 39.264L33.832 36.704C32.872 38.432 30.92 39.456 28.648 39.456C24.68 39.456 22.12 36.8 22.12 32.8C22.12 28.8 24.68 26.144 28.648 26.144C30.92 26.144 32.84 27.168 33.832 28.896L38.248 26.336C36.296 23.168 32.712 21.152 28.648 21.152C21.896 21.152 17 26.208 17 32.8C17 39.392 21.896 44.448 28.648 44.448Z" fill="#06C0B9"/>
<path d="M121.896 21.448L116.04 23.56L117.288 27.944L121.256 26.856V43.848H126.376V21.448H121.896Z" fill="#271335"/>
<path d="M145.906 28.904C145.906 24.264 142.546 21 137.586 21C132.658 21 129.266 24.264 129.266 28.904C129.266 33.256 132.274 36.424 136.722 36.776L131.858 43.848H137.746L144.594 33.448C145.426 32.2 145.906 30.632 145.906 28.904ZM134.386 28.904C134.386 26.952 135.89 25.8 137.586 25.8C139.314 25.8 140.786 26.92 140.786 28.904C140.786 30.888 139.314 32.008 137.586 32.008C135.89 32.008 134.386 30.856 134.386 28.904Z" fill="#271335"/>
<path d="M106.055 58H108.5L105.175 49H102.325L99 58H101.445L101.934 56.5857H105.566L106.055 58ZM102.604 54.6571L103.75 51.3529L104.896 54.6571H102.604Z" fill="#4C45F3"/>
<path d="M112.966 56.02V49H110.731V58H116.459V56.02H112.966Z" fill="#4C45F3"/>
<path d="M121.076 56.02V54.4257H124.569V52.4714H121.076V50.98H124.918V49H118.841V58H124.988V56.02H121.076Z" fill="#4C45F3"/>
<path d="M132.787 58H135.19L133.109 54.6957C134.184 54.1943 134.911 53.1914 134.911 52.0857C134.911 50.3757 133.416 49 131.558 49H127.646V58H129.881V55.0429H130.943L132.787 58ZM129.881 50.9286H131.558C132.173 50.9286 132.676 51.43 132.676 52.0857C132.676 52.7414 132.173 53.2429 131.558 53.2429H129.881V50.9286Z" fill="#4C45F3"/>
<path d="M144 49H136.735V50.98H139.25V58H141.485V50.98H144V49Z" fill="#4C45F3"/>
</svg>
