<svg width="146" height="66" fill="none" xmlns="http://www.w3.org/2000/svg"><path opacity=".08" d="M0 28.892C0 57.647 30.08 66 48.106 66c18.217-6.696-1.573-18.956-1.573-34.913 0-15.957 22.464-27.26 1.573-31.087C30.08 0 0 6.573 0 28.892z" fill="#4C45F3"/><path d="M51.023 44.448c6.432 0 11.648-5.056 11.648-11.648s-5.216-11.648-11.648-11.648c-6.432 0-11.648 5.056-11.648 11.648s5.216 11.648 11.648 11.648zm0-4.992c-3.648 0-6.528-2.656-6.528-6.656 0-4 2.88-6.656 6.528-6.656 3.648 0 6.528 2.656 6.528 6.656 0 4-2.88 6.656-6.528 6.656zM69.961 44h6.528l7.296-22.4h-5.6l-4.96 16.48-4.96-16.48h-5.6L69.961 44zM85.71 21.6V44h5.12V21.6h-5.12zM103.639 21.6h-8.96V44h8.96c6.176 0 10.88-4.864 10.88-11.2 0-6.336-4.704-11.2-10.88-11.2zm0 17.472h-3.84V26.528h3.84c3.52 0 5.952 2.432 5.952 6.272 0 3.84-2.432 6.272-5.952 6.272z" fill="#271335"/><path d="M28.648 44.448c4.096 0 7.68-2.016 9.6-5.184l-4.416-2.56c-.96 1.728-2.912 2.752-5.184 2.752-3.968 0-6.528-2.656-6.528-6.656 0-4 2.56-6.656 6.528-6.656 2.272 0 4.192 1.024 5.184 2.752l4.416-2.56c-1.952-3.168-5.536-5.184-9.6-5.184C21.896 21.152 17 26.208 17 32.8s4.896 11.648 11.648 11.648z" fill="#06C0B9"/><path d="M121.896 21.448l-5.856 2.112 1.248 4.384 3.968-1.088v16.992h5.12v-22.4h-4.48zM145.906 28.904c0-4.64-3.36-7.904-8.32-7.904-4.928 0-8.32 3.264-8.32 7.904 0 4.352 3.008 7.52 7.456 7.872l-4.864 7.072h5.888l6.848-10.4c.832-1.248 1.312-2.816 1.312-4.544zm-11.52 0c0-1.952 1.504-3.104 3.2-3.104 1.728 0 3.2 1.12 3.2 3.104s-1.472 3.104-3.2 3.104c-1.696 0-3.2-1.152-3.2-3.104z" fill="#271335"/><path d="M106.055 58h2.445l-3.325-9h-2.85L99 58h2.445l.489-1.414h3.632l.489 1.414zm-3.451-3.343l1.146-3.304 1.146 3.304h-2.292zM112.966 56.02V49h-2.235v9h5.728v-1.98h-3.493zM121.076 56.02v-1.594h3.493V52.47h-3.493V50.98h3.842V49h-6.077v9h6.147v-1.98h-3.912zM132.787 58h2.403l-2.081-3.304c1.075-.502 1.802-1.505 1.802-2.61 0-1.71-1.495-3.086-3.353-3.086h-3.912v9h2.235v-2.957h1.062L132.787 58zm-2.906-7.071h1.677c.615 0 1.118.501 1.118 1.157 0 .655-.503 1.157-1.118 1.157h-1.677v-2.314zM144 49h-7.265v1.98h2.515V58h2.235v-7.02H144V49z" fill="#4C45F3"/></svg>